<svg xmlns="http://www.w3.org/2000/svg" xmlns:xlink="http://www.w3.org/1999/xlink" version="1.1" x="0px" y="0px" viewBox="0 0 66 82.5" style="enable-background:new 0 0 66 66;" xml:space="preserve"><path d="M64.04,61.25h-4.45l-2.33-9.49c-0.75-3.04-2.72-5.68-5.43-7.24c-0.78-0.46-1.56-0.88-2.34-1.3  c0.04-0.41,0.07-0.87,0.08-1.42c0.02-1.15-0.35-2.01-1.09-2.55c-1.26-0.93-3.25-0.66-4.85-0.2c-1.11-1.72-2.35-3.12-3.27-4.05  c1.7-1.49,3.08-3.47,3.97-5.79c2.1-0.22,3.83-1.87,4.12-3.99c0.24-1.74-0.55-3.46-1.98-4.45c0.69-3.17,1.07-7.89-1.37-11.65  c-2.31-3.56-6.63-5.47-12.86-5.67C21.81,3.13,19,11.47,18.26,16.48c-0.24,1.62,0.02,3.27,0.7,4.73c-1.09,1.02-1.63,2.52-1.43,4.02  c0.29,2.12,2.03,3.77,4.13,3.99c0.9,2.31,2.27,4.3,3.97,5.79c-0.96,0.96-2.25,2.42-3.4,4.24c-1.54-0.42-3.49-0.67-4.71,0.26  c-0.72,0.55-1.08,1.4-1.07,2.54c0.01,0.44,0.03,0.82,0.06,1.17c-0.78,0.42-1.56,0.85-2.35,1.3c-2.7,1.57-4.68,4.21-5.43,7.24  l-2.33,9.49H1.96c-0.36,0-0.65,0.29-0.65,0.65c0,0.36,0.29,0.65,0.65,0.65h62.08c0.36,0,0.65-0.29,0.65-0.65  C64.69,61.54,64.4,61.25,64.04,61.25z M47.72,40.3c0.39,0.29,0.58,0.78,0.57,1.49c0,0.28-0.02,0.54-0.03,0.78  c-1.21-0.62-2.41-1.19-3.58-1.69c-0.11-0.22-0.23-0.45-0.35-0.66C45.86,39.82,47.1,39.84,47.72,40.3z M45.05,47.13l-4.78,1.78  c-0.22,0.08-0.38,0.28-0.41,0.51c-0.03,0.23,0.06,0.47,0.25,0.61l3.86,2.89l-4.11,8.33H36.9c0.51-3.66,2.66-19.43,2.41-25.42  c0.01,0,0.01-0.01,0.02-0.01C41.3,37.77,44.97,42.08,45.05,47.13z M27.96,36.62c1.54,0.82,3.25,1.28,5.04,1.28  c1.79,0,3.49-0.47,5.04-1.29c0.05,6.4-2.01,21.55-2.44,24.64H30.4C29.97,58.17,27.91,43.03,27.96,36.62z M47.18,25.06  c-0.18,1.32-1.14,2.37-2.37,2.74c0.32-1.11,0.53-2.28,0.62-3.49c0-0.01,0.01-0.01,0.01-0.02c0.04-0.11,0.37-0.91,0.71-2.14  C46.92,22.89,47.33,23.97,47.18,25.06z M19.54,16.67c0.8-5.48,3.56-11.92,12.11-11.92c0.18,0,0.37,0,0.56,0.01  c5.78,0.19,9.75,1.89,11.81,5.08c2.68,4.14,1.5,9.83,0.71,12.49c-1.13-2.42-3.31-7.21-3.68-8.95c-0.04-0.17-0.14-0.32-0.28-0.41  c-0.14-0.09-0.32-0.12-0.49-0.09l-5.09,1.14c-2.41,0.62-8.87,1.55-9.81-1.44c-0.1-0.32-0.42-0.51-0.75-0.44  c-0.33,0.07-0.55,0.37-0.51,0.7c0.01,0.08,0.77,7.98-2.78,9.62c-0.13-0.15-0.27-0.29-0.4-0.45c-0.01-0.01-0.02-0.02-0.03-0.03  c-0.21-0.28-0.4-0.58-0.58-0.9c0-0.01-0.01-0.01-0.01-0.01C19.61,19.72,19.32,18.18,19.54,16.67z M18.82,25.06  c-0.13-0.98,0.17-1.96,0.81-2.68c0.03,0.05,0.07,0.09,0.1,0.13c0.12,0.17,0.24,0.35,0.38,0.51c0.13,0.16,0.27,0.31,0.41,0.46  c0.04,1.51,0.27,2.96,0.66,4.32C19.96,27.43,19,26.38,18.82,25.06z M21.83,23.64c3.13-1.4,3.65-6.07,3.66-8.84  c3.07,2.2,9.68,0.55,10,0.47l4.46-1c0.82,2.72,3.59,8.58,4.19,9.83C43.69,31.13,38.82,36.62,33,36.62  C27.04,36.62,22.11,30.83,21.83,23.64z M26.68,35.84c-0.24,5.99,1.9,21.76,2.41,25.41h-2.97l-4.11-8.33l3.86-2.89  c0.19-0.14,0.29-0.38,0.25-0.61c-0.03-0.23-0.19-0.43-0.41-0.51l-4.78-1.78c0.09-5.05,3.75-9.35,5.71-11.31  C26.67,35.83,26.68,35.83,26.68,35.84z M17.75,42.03c-0.01-0.71,0.17-1.2,0.55-1.49c0.59-0.45,1.76-0.49,3.25-0.13  c-0.08,0.15-0.16,0.31-0.24,0.46c-1.16,0.51-2.35,1.07-3.55,1.68C17.76,42.39,17.76,42.22,17.75,42.03z M9.99,52.07  c0.66-2.7,2.42-5.04,4.82-6.43c0.63-0.37,1.27-0.72,1.89-1.06c0.13,0.59,0.28,1,0.41,1.35c0.25,0.67,0.35,0.95-0.07,2.11  c-0.19,0.52-0.33,0.96-0.44,1.35l-3.63,6.26c-0.32,0.55-0.41,1.2-0.24,1.81c0.13,0.48,0.41,0.9,0.79,1.21  c0.06,0.96,0.85,1.72,1.82,1.72c1.01,0,1.83-0.82,1.83-1.83c0-1.01-0.82-1.83-1.83-1.83c-0.51,0-0.97,0.21-1.3,0.55  c-0.02-0.05-0.05-0.1-0.06-0.16c-0.05-0.19-0.08-0.49,0.11-0.82l3.15-5.41l3.14,5.41c0.1,0.18,0.15,0.36,0.15,0.53  c-0.27-0.16-0.59-0.26-0.93-0.26c-1.01,0-1.83,0.82-1.83,1.83c0,1.01,0.82,1.83,1.83,1.83c1.01,0,1.84-0.82,1.84-1.83  c0-0.08-0.01-0.16-0.02-0.23c0.5-0.75,0.55-1.72,0.09-2.51l-3.58-6.15c0.09-0.3,0.2-0.63,0.34-1.01c0.56-1.54,0.4-2.12,0.07-3.01  c-0.14-0.37-0.3-0.82-0.42-1.53c0.89-0.46,1.77-0.9,2.64-1.3c-0.57,1.53-0.93,3.2-0.89,4.95c0.01,0.26,0.17,0.5,0.42,0.59l4.09,1.52  l-3.34,2.5c-0.25,0.19-0.33,0.52-0.19,0.8l4.06,8.24H7.74L9.99,52.07z M15.34,58.02c0.3,0,0.54,0.24,0.54,0.54  c0,0.3-0.24,0.54-0.54,0.54c-0.3,0-0.54-0.24-0.54-0.54C14.8,58.26,15.04,58.02,15.34,58.02z M20.14,58.4c0,0.3-0.24,0.54-0.54,0.54  c-0.3,0-0.54-0.24-0.54-0.54s0.24-0.54,0.54-0.54C19.89,57.86,20.14,58.1,20.14,58.4z M41.31,61.25l4.06-8.24  c0.14-0.28,0.06-0.62-0.19-0.8l-3.34-2.5l4.09-1.52c0.25-0.09,0.41-0.33,0.42-0.59c0.04-1.75-0.32-3.42-0.89-4.95  c0.86,0.4,1.74,0.84,2.63,1.3c-0.11,0.58-0.26,0.97-0.38,1.29c-0.33,0.89-0.49,1.47,0.07,3.01c0.08,0.23,0.16,0.45,0.23,0.65  c-1.18,0.64-1.98,1.88-1.98,3.31c0,2.07,1.69,3.76,3.76,3.76s3.76-1.69,3.76-3.76c0-2.07-1.69-3.76-3.76-3.76  c-0.19,0-0.37,0.02-0.55,0.04c-0.07-0.22-0.15-0.45-0.24-0.69c-0.43-1.16-0.32-1.44-0.07-2.11c0.11-0.3,0.24-0.65,0.35-1.12  c0.63,0.34,1.27,0.7,1.91,1.07c2.4,1.39,4.16,3.74,4.82,6.43l2.25,9.18H41.31z M49.78,49.74c1.36,0,2.47,1.11,2.47,2.47  s-1.11,2.47-2.47,2.47s-2.47-1.11-2.47-2.47S48.42,49.74,49.78,49.74z"/><path d="M1.96,37.52h7.59l3.27,2.11c0.11,0.07,0.23,0.1,0.35,0.1c0.07,0,0.13-0.01,0.2-0.03c0.18-0.06,0.33-0.2,0.4-0.38l0.73-1.81  h1.22c0.36,0,0.65-0.29,0.65-0.65v-8c0-0.36-0.29-0.65-0.65-0.65H1.96c-0.36,0-0.65,0.29-0.65,0.65v8  C1.31,37.23,1.6,37.52,1.96,37.52z M2.61,29.52h12.48v6.71h-1.01c-0.26,0-0.5,0.16-0.6,0.41l-0.6,1.49l-2.78-1.79  c-0.1-0.07-0.23-0.1-0.35-0.1H2.61V29.52z"/><path d="M4.34,32.24h7.77c0.36,0,0.65-0.29,0.65-0.65c0-0.36-0.29-0.65-0.65-0.65H4.34c-0.36,0-0.65,0.29-0.65,0.65  C3.69,31.95,3.98,32.24,4.34,32.24z"/><path d="M9.82,34.13c0,0.36,0.29,0.65,0.65,0.65h2.86c0.36,0,0.65-0.29,0.65-0.65s-0.29-0.65-0.65-0.65h-2.86  C10.11,33.49,9.82,33.78,9.82,34.13z"/><path d="M7.98,33.49H4.34c-0.36,0-0.65,0.29-0.65,0.65s0.29,0.65,0.65,0.65h3.64c0.36,0,0.65-0.29,0.65-0.65S8.34,33.49,7.98,33.49z  "/><path d="M49.78,53.41c0.67,0,1.21-0.54,1.21-1.21c0-0.67-0.54-1.21-1.21-1.21c-0.67,0-1.21,0.54-1.21,1.21  C48.58,52.87,49.12,53.41,49.78,53.41z"/><path d="M50.82,39.88c0.02,0.2,0.13,0.37,0.29,0.48c0.11,0.07,0.23,0.1,0.35,0.1c0.07,0,0.14-0.01,0.21-0.03l3.52-1.19  c0.45,0.08,0.91,0.13,1.36,0.13c4.09,0,7.42-3.33,7.42-7.42c0-4.1-3.33-7.43-7.42-7.43c-4.09,0-7.42,3.33-7.42,7.43  c0,1.54,0.47,3.02,1.35,4.27L50.82,39.88z M56.56,25.81c3.38,0,6.13,2.75,6.13,6.14c0,3.38-2.75,6.13-6.13,6.13  c-0.43,0-0.86-0.04-1.27-0.13c-0.11-0.02-0.23-0.02-0.34,0.02l-2.91,0.98l-0.28-3.01c-0.01-0.12-0.05-0.23-0.12-0.33  c-0.79-1.06-1.2-2.33-1.2-3.65C50.43,28.57,53.18,25.81,56.56,25.81z"/><path d="M55.03,31.22c0.36,0,0.65-0.29,0.65-0.65c0-0.49,0.4-0.88,0.88-0.88c0.49,0,0.88,0.4,0.88,0.88c0,0.49-0.4,0.88-0.88,0.88  c-0.36,0-0.65,0.29-0.65,0.65v1.73c0,0.36,0.29,0.65,0.65,0.65c0.36,0,0.65-0.29,0.65-0.65v-1.18c0.89-0.28,1.53-1.1,1.53-2.08  c0-1.2-0.98-2.18-2.18-2.18c-1.2,0-2.18,0.98-2.18,2.18C54.38,30.94,54.67,31.22,55.03,31.22z"/><path d="M56.56,34.57c-0.36,0-0.65,0.29-0.65,0.65v0.12c0,0.36,0.29,0.65,0.65,0.65c0.36,0,0.65-0.29,0.65-0.65v-0.12  C57.2,34.86,56.91,34.57,56.56,34.57z"/><path d="M37.57,21.16c-0.72,0-1.3,0.58-1.3,1.3c0,0.72,0.58,1.3,1.3,1.3s1.3-0.58,1.3-1.3C38.87,21.74,38.29,21.16,37.57,21.16z"/><path d="M36.06,20.85c0.19,0,0.37-0.08,0.5-0.23c0.53-0.63,1.49-0.63,2.02,0c0.23,0.27,0.64,0.31,0.91,0.08  c0.27-0.23,0.31-0.64,0.08-0.91c-0.51-0.61-1.24-0.95-2-0.95c-0.77,0-1.49,0.35-2,0.95c-0.23,0.27-0.19,0.68,0.08,0.91  C35.77,20.8,35.92,20.85,36.06,20.85z"/><path d="M27.59,20.85c0.19,0,0.37-0.08,0.5-0.23c0.53-0.63,1.49-0.63,2.02,0c0.23,0.27,0.64,0.31,0.91,0.08  c0.27-0.23,0.31-0.64,0.08-0.91c-0.51-0.61-1.24-0.95-2-0.95c-0.77,0-1.49,0.35-2,0.95c-0.23,0.27-0.19,0.68,0.08,0.91  C27.29,20.8,27.44,20.85,27.59,20.85z"/><path d="M30.39,22.46c0-0.72-0.58-1.3-1.3-1.3c-0.72,0-1.3,0.58-1.3,1.3c0,0.72,0.58,1.3,1.3,1.3  C29.81,23.76,30.39,23.17,30.39,22.46z"/><path d="M36.28,29.66h-5.81c-0.18,0-0.35,0.08-0.47,0.21c-0.12,0.13-0.18,0.31-0.17,0.49c0.15,1.85,1.71,3.3,3.55,3.3  c1.85,0,3.41-1.45,3.55-3.3c0.01-0.18-0.05-0.36-0.17-0.49C36.63,29.73,36.46,29.66,36.28,29.66z M33.37,32.36  c-0.93,0-1.75-0.58-2.09-1.41h4.19C35.13,31.79,34.32,32.36,33.37,32.36z"/><path d="M33.04,27.03c-0.31,0.18-0.4,0.58-0.22,0.89c0.12,0.2,0.34,0.31,0.55,0.31c0.11,0,0.23-0.03,0.33-0.09  c0.86-0.52,1.09-1.53,0.63-2.76c-0.21-0.56-0.32-1.16-0.32-1.79v-2.67c0-0.36-0.29-0.65-0.65-0.65s-0.65,0.29-0.65,0.65v2.67  c0,0.78,0.13,1.53,0.4,2.24C33.36,26.45,33.33,26.85,33.04,27.03z"/><text x="0" y="81" fill="#000000" font-size="5px" font-weight="bold" font-family="'Helvetica Neue', Helvetica, Arial-Unicode, Arial, Sans-serif">Created by Design Circle</text><text x="0" y="86" fill="#000000" font-size="5px" font-weight="bold" font-family="'Helvetica Neue', Helvetica, Arial-Unicode, Arial, Sans-serif">from the Noun Project</text></svg>